<?xml version="1.0" encoding="UTF-8" standalone="no"?>
<!DOCTYPE svg PUBLIC "-//W3C//DTD SVG 1.1//EN"
 "http://www.w3.org/Graphics/SVG/1.1/DTD/svg11.dtd">
<!-- Generated by graphviz version 14.1.4 (20260321.0153)
 -->
<!-- Title: CloudShield Pages: 1 -->
<svg width="1326pt" height="758pt"
 viewBox="0.00 0.00 1326.00 758.00" xmlns="http://www.w3.org/2000/svg" xmlns:xlink="http://www.w3.org/1999/xlink">
<g id="graph0" class="graph" transform="scale(1 1) rotate(0) translate(4 754)">
<title>CloudShield</title>
<polygon fill="white" stroke="none" points="-4,4 -4,-754 1322.14,-754 1322.14,4 -4,4"/>
<g id="clust1" class="cluster">
<title>cluster_hub</title>
<path fill="#eff6ff" stroke="#60a5fa" d="M177.89,-8C177.89,-8 332.64,-8 332.64,-8 338.64,-8 344.64,-14 344.64,-20 344.64,-20 344.64,-477 344.64,-477 344.64,-483 338.64,-489 332.64,-489 332.64,-489 177.89,-489 177.89,-489 171.89,-489 165.89,-483 165.89,-477 165.89,-477 165.89,-20 165.89,-20 165.89,-14 171.89,-8 177.89,-8"/>
<text xml:space="preserve" text-anchor="middle" x="255.26" y="-471.7" font-family="Arial" font-size="14.00">VNet Hub (10.0.0.0/16)</text>
</g>
<g id="clust2" class="cluster">
<title>cluster_prod</title>
<path fill="#ecfdf5" stroke="#34d399" d="M205.76,-497C205.76,-497 826.39,-497 826.39,-497 832.39,-497 838.39,-503 838.39,-509 838.39,-509 838.39,-730 838.39,-730 838.39,-736 832.39,-742 826.39,-742 826.39,-742 205.76,-742 205.76,-742 199.76,-742 193.76,-736 193.76,-730 193.76,-730 193.76,-509 193.76,-509 193.76,-503 199.76,-497 205.76,-497"/>
<text xml:space="preserve" text-anchor="middle" x="516.07" y="-724.7" font-family="Arial" font-size="14.00">Spoke PROD (10.1.0.0/16)</text>
</g>
<g id="clust3" class="cluster">
<title>cluster_data</title>
<path fill="#fef2f2" stroke="#f87171" d="M924.64,-134C924.64,-134 1095.14,-134 1095.14,-134 1101.14,-134 1107.14,-140 1107.14,-146 1107.14,-146 1107.14,-603 1107.14,-603 1107.14,-609 1101.14,-615 1095.14,-615 1095.14,-615 924.64,-615 924.64,-615 918.64,-615 912.64,-609 912.64,-603 912.64,-603 912.64,-146 912.64,-146 912.64,-140 918.64,-134 924.64,-134"/>
<text xml:space="preserve" text-anchor="middle" x="1009.89" y="-597.7" font-family="Arial" font-size="14.00">Spoke DATA (10.2.0.0/16)</text>
</g>
<g id="clust4" class="cluster">
<title>cluster_paas</title>
<path fill="#f5f3ff" stroke="#a78bfa" d="M1176.39,-370C1176.39,-370 1298.14,-370 1298.14,-370 1304.14,-370 1310.14,-376 1310.14,-382 1310.14,-382 1310.14,-603 1310.14,-603 1310.14,-609 1304.14,-615 1298.14,-615 1298.14,-615 1176.39,-615 1176.39,-615 1170.39,-615 1164.39,-609 1164.39,-603 1164.39,-603 1164.39,-382 1164.39,-382 1164.39,-376 1170.39,-370 1176.39,-370"/>
<text xml:space="preserve" text-anchor="middle" x="1237.26" y="-597.7" font-family="Arial" font-size="14.00">PaaS (Private only)</text>
</g>
<g id="clust5" class="cluster">
<title>cluster_onprem</title>
<path fill="#fffbeb" stroke="#fbbf24" d="M427.39,-244C427.39,-244 615.89,-244 615.89,-244 621.89,-244 627.89,-250 627.89,-256 627.89,-256 627.89,-477 627.89,-477 627.89,-483 621.89,-489 615.89,-489 615.89,-489 427.39,-489 427.39,-489 421.39,-489 415.39,-483 415.39,-477 415.39,-477 415.39,-256 415.39,-256 415.39,-250 421.39,-244 427.39,-244"/>
<text xml:space="preserve" text-anchor="middle" x="521.64" y="-471.7" font-family="Arial" font-size="14.00">On&#45;Prem Sim (10.10.0.0/16)</text>
</g>
<!-- Internet -->
<g id="node1" class="node">
<title>Internet</title>
<ellipse fill="#e0f2fe" stroke="#0284c7" cx="33.19" cy="-289" rx="33.19" ry="18"/>
<text xml:space="preserve" text-anchor="middle" x="33.19" y="-285.88" font-family="Arial" font-size="10.00">Internet</text>
</g>
<!-- WAF -->
<g id="node7" class="node">
<title>WAF</title>
<image xlink:href="docs/assets/azure-icons/appgw.png" width="96px" height="86.4px" preserveAspectRatio="xMinYMin meet" x="206.762" y="-591.2"/>
<text xml:space="preserve" text-anchor="middle" x="254.76" y="-508.05" font-family="Arial" font-size="10.00">App Gateway WAF</text>
</g>
<!-- Internet&#45;&gt;WAF -->
<g id="edge1" class="edge">
<title>Internet&#45;&gt;WAF</title>
<path fill="none" stroke="#4b5563" stroke-width="1.2" d="M41.89,-306.86C59.25,-345.52 104.75,-438.18 165.89,-497 174.13,-504.93 183.83,-512.12 193.73,-518.42"/>
<polygon fill="#4b5563" stroke="#4b5563" stroke-width="1.2" points="192.23,-520.79 200.51,-522.57 195.15,-516.01 192.23,-520.79"/>
<text xml:space="preserve" text-anchor="middle" x="125.64" y="-490.34" font-family="Arial" font-size="9.00">HTTPS 443</text>
</g>
<!-- VNetHub -->
<g id="node2" class="node">
<title>VNetHub</title>
<image xlink:href="docs/assets/azure-icons/vnet.png" width="74px" height="86.4px" preserveAspectRatio="xMinYMin meet" x="217.762" y="-102.2"/>
<text xml:space="preserve" text-anchor="middle" x="254.76" y="-19.05" font-family="Arial" font-size="10.00">vnet&#45;hub</text>
</g>
<!-- VNetProd -->
<g id="node6" class="node">
<title>VNetProd</title>
<image xlink:href="docs/assets/azure-icons/vnet.png" width="95.5px" height="86.4px" preserveAspectRatio="xMinYMin meet" x="207.012" y="-709.2"/>
<text xml:space="preserve" text-anchor="middle" x="254.76" y="-626.05" font-family="Arial" font-size="10.00">vnet&#45;spoke&#45;prod</text>
</g>
<!-- VNetHub&#45;&gt;VNetProd -->
<g id="edge9" class="edge">
<title>VNetHub&#45;&gt;VNetProd</title>
<path fill="none" stroke="#0284c7" stroke-width="1.2" d="M209.7,-81.17C194.07,-90.7 177.56,-103.1 165.89,-118 126.48,-168.32 128.31,-190.4 117.37,-253.38 90.2,-409.67 81.25,-472.83 165.89,-607 174.15,-620.1 186.5,-630.94 199.39,-639.6"/>
<polygon fill="#0284c7" stroke="#0284c7" stroke-width="1.2" points="210.71,-83.82 216.2,-77.37 207.88,-78.99 210.71,-83.82"/>
<polygon fill="#0284c7" stroke="#0284c7" stroke-width="1.2" points="197.66,-641.81 205.91,-643.73 200.66,-637.08 197.66,-641.81"/>
<text xml:space="preserve" text-anchor="middle" x="125.64" y="-256.07" font-family="Arial" font-size="9.00">VNet peering</text>
</g>
<!-- VNetData -->
<g id="node10" class="node">
<title>VNetData</title>
<image xlink:href="docs/assets/azure-icons/vnet.png" width="95.5px" height="86.4px" preserveAspectRatio="xMinYMin meet" x="961.637" y="-228.2"/>
<text xml:space="preserve" text-anchor="middle" x="1009.39" y="-145.05" font-family="Arial" font-size="10.00">vnet&#45;spoke&#45;data</text>
</g>
<!-- VNetHub&#45;&gt;VNetData -->
<g id="edge10" class="edge">
<title>VNetHub&#45;&gt;VNetData</title>
<path fill="none" stroke="#0284c7" stroke-width="1.2" d="M301.21,-48.02C411.69,-23.85 700.2,24.02 904.64,-79 930.44,-92 953.56,-113.98 971.39,-134.55"/>
<polygon fill="#0284c7" stroke="#0284c7" stroke-width="1.2" points="300.68,-45.27 293.48,-49.74 301.9,-50.74 300.68,-45.27"/>
<polygon fill="#0284c7" stroke="#0284c7" stroke-width="1.2" points="969.24,-136.35 976.54,-140.67 973.52,-132.74 969.24,-136.35"/>
<text xml:space="preserve" text-anchor="middle" x="668.14" y="-24.17" font-family="Arial" font-size="9.00">VNet peering</text>
</g>
<!-- Firewall -->
<g id="node3" class="node">
<title>Firewall</title>
<image xlink:href="docs/assets/azure-icons/firewall.png" width="85px" height="86.4px" preserveAspectRatio="xMinYMin meet" x="212.262" y="-220.2"/>
<text xml:space="preserve" text-anchor="middle" x="254.76" y="-137.05" font-family="Arial" font-size="10.00">Azure Firewall</text>
</g>
<!-- Firewall&#45;&gt;Internet -->
<g id="edge14" class="edge">
<title>Firewall&#45;&gt;Internet</title>
<path fill="none" stroke="#4b5563" stroke-width="1.2" d="M212.51,-186.58C178.84,-195.54 130.88,-210.99 93.39,-233.75 79.19,-242.37 65.49,-254.79 54.86,-265.68"/>
<polygon fill="#4b5563" stroke="#4b5563" stroke-width="1.2" points="53.06,-263.51 49.58,-271.24 57.12,-267.36 53.06,-263.51"/>
<text xml:space="preserve" text-anchor="middle" x="125.64" y="-236.45" font-family="Arial" font-size="9.00">egress filtré</text>
</g>
<!-- Bastion -->
<g id="node4" class="node">
<title>Bastion</title>
<image xlink:href="docs/assets/azure-icons/bastion.png" width="83.5px" height="86.4px" preserveAspectRatio="xMinYMin meet" x="213.012" y="-338.2"/>
<text xml:space="preserve" text-anchor="middle" x="254.76" y="-255.05" font-family="Arial" font-size="10.00">Azure Bastion</text>
</g>
<!-- VMWeb -->
<g id="node8" class="node">
<title>VMWeb</title>
<image xlink:href="docs/assets/azure-icons/vm.png" width="96px" height="86.4px" preserveAspectRatio="xMinYMin meet" x="473.137" y="-591.2"/>
<text xml:space="preserve" text-anchor="middle" x="521.14" y="-508.05" font-family="Arial" font-size="10.00">vm&#45;web (10.1.1.4)</text>
</g>
<!-- Bastion&#45;&gt;VMWeb -->
<g id="edge15" class="edge">
<title>Bastion&#45;&gt;VMWeb</title>
<path fill="none" stroke="#4b5563" stroke-width="1.2" stroke-dasharray="5,2" d="M296.34,-309.43C332.2,-324.5 382.54,-351.87 407.39,-393.75 419.13,-413.54 402.44,-477.97 415.39,-497 426,-512.59 442.78,-523.59 459.82,-531.28"/>
<polygon fill="#4b5563" stroke="#4b5563" stroke-width="1.2" points="458.59,-533.8 467.05,-534.3 460.75,-528.63 458.59,-533.8"/>
<text xml:space="preserve" text-anchor="middle" x="380.01" y="-396.45" font-family="Arial" font-size="9.00">SSH/RDP</text>
</g>
<!-- VMApp -->
<g id="node9" class="node">
<title>VMApp</title>
<image xlink:href="docs/assets/azure-icons/vm.png" width="96px" height="86.4px" preserveAspectRatio="xMinYMin meet" x="730.887" y="-591.2"/>
<text xml:space="preserve" text-anchor="middle" x="778.89" y="-508.05" font-family="Arial" font-size="10.00">vm&#45;app (10.1.2.4)</text>
</g>
<!-- Bastion&#45;&gt;VMApp -->
<g id="edge16" class="edge">
<title>Bastion&#45;&gt;VMApp</title>
<path fill="none" stroke="#4b5563" stroke-width="1.2" stroke-dasharray="5,2" d="M296.5,-269.83C369.02,-228.6 522.73,-157.62 627.89,-224.75 721.9,-284.77 757.89,-420.57 770.96,-495.65"/>
<polygon fill="#4b5563" stroke="#4b5563" stroke-width="1.2" points="768.13,-495.72 772.21,-503.15 773.65,-494.8 768.13,-495.72"/>
<text xml:space="preserve" text-anchor="middle" x="521.14" y="-227.45" font-family="Arial" font-size="9.00">SSH/RDP</text>
</g>
<!-- VMDB -->
<g id="node11" class="node">
<title>VMDB</title>
<image xlink:href="docs/assets/azure-icons/vm.png" width="96px" height="86.4px" preserveAspectRatio="xMinYMin meet" x="961.387" y="-346.2"/>
<text xml:space="preserve" text-anchor="middle" x="1009.39" y="-263.05" font-family="Arial" font-size="10.00">vm&#45;db (10.2.1.4)</text>
</g>
<!-- Bastion&#45;&gt;VMDB -->
<g id="edge17" class="edge">
<title>Bastion&#45;&gt;VMDB</title>
<path fill="none" stroke="#4b5563" stroke-width="1.2" stroke-dasharray="5,2" d="M296.07,-275.89C313.11,-266.06 331.92,-252.62 344.64,-236 351.47,-227.07 344.81,-220.07 352.64,-212 373.33,-190.69 386.14,-194.19 415.39,-189 613.23,-153.88 847.22,-235.25 952.34,-278.37"/>
<polygon fill="#4b5563" stroke="#4b5563" stroke-width="1.2" points="951.06,-280.86 959.52,-281.34 953.2,-275.69 951.06,-280.86"/>
<text xml:space="preserve" text-anchor="middle" x="668.14" y="-202.4" font-family="Arial" font-size="9.00">SSH/RDP</text>
</g>
<!-- VPNHub -->
<g id="node5" class="node">
<title>VPNHub</title>
<image xlink:href="docs/assets/azure-icons/vpngw.png" width="82.75px" height="86.4px" preserveAspectRatio="xMinYMin meet" x="213.387" y="-456.2"/>
<text xml:space="preserve" text-anchor="middle" x="254.76" y="-373.05" font-family="Arial" font-size="10.00">VPN Gateway</text>
</g>
<!-- VPNOnPrem -->
<g id="node17" class="node">
<title>VPNOnPrem</title>
<image xlink:href="docs/assets/azure-icons/vpngw.png" width="82.75px" height="86.4px" preserveAspectRatio="xMinYMin meet" x="479.762" y="-456.2"/>
<text xml:space="preserve" text-anchor="middle" x="521.14" y="-373.05" font-family="Arial" font-size="10.00">VPN Gateway</text>
</g>
<!-- VPNHub&#45;&gt;VPNOnPrem -->
<g id="edge11" class="edge">
<title>VPNHub&#45;&gt;VPNOnPrem</title>
<path fill="none" stroke="#f59e0b" stroke-width="1.2" d="M305.65,-413C352.82,-413 423.21,-413 470.35,-413"/>
<polygon fill="#f59e0b" stroke="#f59e0b" stroke-width="1.2" points="305.73,-410.2 297.73,-413 305.73,-415.8 305.73,-410.2"/>
<polygon fill="#f59e0b" stroke="#f59e0b" stroke-width="1.2" points="470.22,-415.8 478.22,-413 470.22,-410.2 470.22,-415.8"/>
<text xml:space="preserve" text-anchor="middle" x="380.01" y="-415.7" font-family="Arial" font-size="9.00">IPsec + BGP</text>
</g>
<!-- VNetProd&#45;&gt;Firewall -->
<g id="edge12" class="edge">
<title>VNetProd&#45;&gt;Firewall</title>
<path fill="none" stroke="#4b5563" stroke-width="1.2" d="M207.13,-647.75C174.43,-632.37 133.65,-606.86 114.74,-569.62 112.48,-565.17 114.35,-563.36 114.74,-558.38 126.14,-413.75 87.48,-358.05 165.89,-236 175.35,-221.28 189.93,-209.38 204.57,-200.24"/>
<polygon fill="#4b5563" stroke="#4b5563" stroke-width="1.2" points="205.66,-202.85 211.12,-196.36 202.8,-198.03 205.66,-202.85"/>
<text xml:space="preserve" text-anchor="middle" x="125.64" y="-561.08" font-family="Arial" font-size="9.00">UDR 0.0.0.0/0</text>
</g>
<!-- LAW -->
<g id="node18" class="node">
<title>LAW</title>
<image xlink:href="docs/assets/azure-icons/law.png" width="81.25px" height="86.4px" preserveAspectRatio="xMinYMin meet" x="1196.14" y="-709.2"/>
<text xml:space="preserve" text-anchor="middle" x="1236.76" y="-626.05" font-family="Arial" font-size="10.00">Log Analytics</text>
</g>
<!-- VNetProd&#45;&gt;LAW -->
<g id="edge18" class="edge">
<title>VNetProd&#45;&gt;LAW</title>
<path fill="none" stroke="#4b5563" stroke-width="1.2" stroke-dasharray="1,5" d="M302.09,-666C354.87,-666 443.72,-666 520.14,-666 520.14,-666 520.14,-666 1010.39,-666 1071.08,-666 1140.97,-666 1186.63,-666"/>
<polygon fill="#4b5563" stroke="#4b5563" stroke-width="1.2" points="1186.45,-668.8 1194.45,-666 1186.45,-663.2 1186.45,-668.8"/>
<text xml:space="preserve" text-anchor="middle" x="778.89" y="-668.7" font-family="Arial" font-size="9.00">Flow logs</text>
</g>
<!-- WAF&#45;&gt;VMWeb -->
<g id="edge2" class="edge">
<title>WAF&#45;&gt;VMWeb</title>
<path fill="none" stroke="#4b5563" stroke-width="1.2" d="M307.68,-548C351.11,-548 413.14,-548 458.98,-548"/>
<polygon fill="#4b5563" stroke="#4b5563" stroke-width="1.2" points="458.97,-550.8 466.97,-548 458.97,-545.2 458.97,-550.8"/>
<text xml:space="preserve" text-anchor="middle" x="380.01" y="-550.7" font-family="Arial" font-size="9.00">HTTP 80</text>
</g>
<!-- VMWeb&#45;&gt;VMApp -->
<g id="edge3" class="edge">
<title>VMWeb&#45;&gt;VMApp</title>
<path fill="none" stroke="#4b5563" stroke-width="1.2" d="M573.58,-548C615.22,-548 673.92,-548 717.72,-548"/>
<polygon fill="#4b5563" stroke="#4b5563" stroke-width="1.2" points="717.58,-550.8 725.58,-548 717.58,-545.2 717.58,-550.8"/>
<text xml:space="preserve" text-anchor="middle" x="668.14" y="-550.7" font-family="Arial" font-size="9.00">HTTP 8080</text>
</g>
<!-- VMApp&#45;&gt;VMDB -->
<g id="edge4" class="edge">
<title>VMApp&#45;&gt;VMDB</title>
<path fill="none" stroke="#4b5563" stroke-width="1.2" d="M803.67,-505.15C827.51,-464.85 867.13,-404.53 912.64,-362 924.56,-350.86 938.91,-340.7 952.82,-332.07"/>
<polygon fill="#4b5563" stroke="#4b5563" stroke-width="1.2" points="953.99,-334.64 959.39,-328.11 951.09,-329.85 953.99,-334.64"/>
<text xml:space="preserve" text-anchor="middle" x="881.01" y="-425.5" font-family="Arial" font-size="9.00">TCP 5432</text>
</g>
<!-- PESQL -->
<g id="node12" class="node">
<title>PESQL</title>
<image xlink:href="docs/assets/azure-icons/privatelink.png" width="96px" height="86.4px" preserveAspectRatio="xMinYMin meet" x="961.387" y="-582.2"/>
<text xml:space="preserve" text-anchor="middle" x="1009.39" y="-499.05" font-family="Arial" font-size="10.00">Private Endpoint SQL</text>
</g>
<!-- VMApp&#45;&gt;PESQL -->
<g id="edge5" class="edge">
<title>VMApp&#45;&gt;PESQL</title>
<path fill="none" stroke="#4b5563" stroke-width="1.2" d="M830.32,-546.01C862.75,-544.74 905.29,-543.06 940.66,-541.67"/>
<polygon fill="#4b5563" stroke="#4b5563" stroke-width="1.2" points="940.73,-544.47 948.62,-541.35 940.51,-538.87 940.73,-544.47"/>
<text xml:space="preserve" text-anchor="middle" x="881.01" y="-547.53" font-family="Arial" font-size="9.00">privatelink</text>
</g>
<!-- PEBlob -->
<g id="node13" class="node">
<title>PEBlob</title>
<image xlink:href="docs/assets/azure-icons/privatelink.png" width="96px" height="86.4px" preserveAspectRatio="xMinYMin meet" x="961.387" y="-464.2"/>
<text xml:space="preserve" text-anchor="middle" x="1009.39" y="-381.05" font-family="Arial" font-size="10.00">Private Endpoint Blob</text>
</g>
<!-- VMApp&#45;&gt;PEBlob -->
<g id="edge6" class="edge">
<title>VMApp&#45;&gt;PEBlob</title>
<path fill="none" stroke="#4b5563" stroke-width="1.2" d="M830.32,-519.97C862.8,-501.92 905.43,-478.23 940.83,-458.55"/>
<polygon fill="#4b5563" stroke="#4b5563" stroke-width="1.2" points="941.97,-461.12 947.6,-454.78 939.25,-456.22 941.97,-461.12"/>
<text xml:space="preserve" text-anchor="middle" x="881.01" y="-506" font-family="Arial" font-size="9.00">privatelink</text>
</g>
<!-- VNetData&#45;&gt;Firewall -->
<g id="edge13" class="edge">
<title>VNetData&#45;&gt;Firewall</title>
<path fill="none" stroke="#4b5563" stroke-width="1.2" d="M964.86,-141.97C947.49,-127.24 926.43,-112.17 904.64,-103 820.28,-67.5 791.72,-82.6 700.39,-76.75 545.71,-66.85 481.72,-17.2 352.64,-103 346.34,-107.18 349.72,-112.41 344.64,-118 333.4,-130.38 319.03,-141.36 305.14,-150.4"/>
<polygon fill="#4b5563" stroke="#4b5563" stroke-width="1.2" points="303.87,-147.89 298.58,-154.52 306.85,-152.63 303.87,-147.89"/>
<text xml:space="preserve" text-anchor="middle" x="668.14" y="-79.45" font-family="Arial" font-size="9.00">UDR 0.0.0.0/0</text>
</g>
<!-- VNetData&#45;&gt;LAW -->
<g id="edge19" class="edge">
<title>VNetData&#45;&gt;LAW</title>
<path fill="none" stroke="#4b5563" stroke-width="1.2" stroke-dasharray="1,5" d="M1056.95,-202.98C1075.42,-212.44 1095.09,-225.9 1107.14,-244 1200.57,-384.34 1073.41,-477.06 1164.39,-619 1170.39,-628.37 1179.01,-636.29 1188.19,-642.79"/>
<polygon fill="#4b5563" stroke="#4b5563" stroke-width="1.2" points="1186.61,-645.11 1194.83,-647.16 1189.68,-640.42 1186.61,-645.11"/>
<text xml:space="preserve" text-anchor="middle" x="1135.76" y="-604.9" font-family="Arial" font-size="9.00">Flow logs</text>
</g>
<!-- SQLDB -->
<g id="node14" class="node">
<title>SQLDB</title>
<image xlink:href="docs/assets/azure-icons/sqldb.png" width="82.75px" height="86.4px" preserveAspectRatio="xMinYMin meet" x="1195.39" y="-582.2"/>
<text xml:space="preserve" text-anchor="middle" x="1236.76" y="-499.05" font-family="Arial" font-size="10.00">Azure SQL DB</text>
</g>
<!-- PESQL&#45;&gt;SQLDB -->
<g id="edge7" class="edge">
<title>PESQL&#45;&gt;SQLDB</title>
<path fill="none" stroke="#4b5563" stroke-width="1.2" d="M1068.13,-539C1104.61,-539 1151.26,-539 1186.08,-539"/>
<polygon fill="#4b5563" stroke="#4b5563" stroke-width="1.2" points="1185.76,-541.8 1193.76,-539 1185.76,-536.2 1185.76,-541.8"/>
</g>
<!-- Storage -->
<g id="node15" class="node">
<title>Storage</title>
<image xlink:href="docs/assets/azure-icons/storage.png" width="95.5px" height="86.4px" preserveAspectRatio="xMinYMin meet" x="1189.01" y="-464.2"/>
<text xml:space="preserve" text-anchor="middle" x="1236.76" y="-381.05" font-family="Arial" font-size="10.00">Storage Account</text>
</g>
<!-- PEBlob&#45;&gt;Storage -->
<g id="edge8" class="edge">
<title>PEBlob&#45;&gt;Storage</title>
<path fill="none" stroke="#4b5563" stroke-width="1.2" d="M1069.6,-421C1103.55,-421 1145.93,-421 1179.39,-421"/>
<polygon fill="#4b5563" stroke="#4b5563" stroke-width="1.2" points="1179.21,-423.8 1187.21,-421 1179.21,-418.2 1179.21,-423.8"/>
</g>
<!-- VNetOnPrem -->
<g id="node16" class="node">
<title>VNetOnPrem</title>
<image xlink:href="docs/assets/azure-icons/vnet.png" width="96px" height="86.4px" preserveAspectRatio="xMinYMin meet" x="473.137" y="-338.2"/>
<text xml:space="preserve" text-anchor="middle" x="521.14" y="-255.05" font-family="Arial" font-size="10.00">vnet&#45;onprem&#45;sim</text>
</g>
</g>
</svg>
